<svg width="512" height="512" viewBox="0 0 512 512" fill="none" xmlns="http://www.w3.org/2000/svg">
<rect width="512" height="512" rx="256" fill="white"/>
<g clip-path="url(#clip0_2766_17485)">
<path d="M221.151 436.047L249.176 387.548L289.644 457.592L340.678 428.15L294.638 348.475L283.19 328.671L269.764 305.424H228.583L215.157 328.671L203.704 348.475L170.117 406.611L221.151 436.047Z" fill="black"/>
<path d="M82.3374 316.455L138.382 316.46L97.9147 386.499L148.949 415.945L194.989 336.27L206.426 316.46L219.858 293.219L199.27 257.583H172.407L149.517 257.573L82.3374 257.578V316.455Z" fill="black"/>
<path d="M116.601 136.567L144.621 185.071L63.6807 185.066V243.948H155.761L178.651 243.938L205.514 243.943L226.102 208.308L212.67 185.066L201.233 165.257L167.63 107.125L116.601 136.567Z" fill="black"/>
<path d="M289.644 76.2438L261.619 124.743L221.151 54.6993L170.117 84.1405L216.157 163.822L227.61 183.626L241.036 206.873H282.217L295.643 183.626L307.091 163.822L340.678 105.685L289.644 76.2438Z" fill="black"/>
<path d="M428.431 195.83L372.386 195.825L412.859 125.786L361.825 96.3452L315.785 176.021L304.348 195.83L290.916 219.072L311.504 254.707L338.367 254.702L361.257 254.713L428.436 254.707L428.431 195.83Z" fill="black"/>
<path d="M394.185 375.729L366.165 327.23L447.105 327.235L447.111 268.353H355.036L332.146 268.358H305.283L284.689 303.994L298.121 327.235L309.558 347.045L343.15 405.176L394.185 375.729Z" fill="black"/>
</g>
<defs>
<clipPath id="clip0_2766_17485">
<rect width="402.675" height="402.675" fill="white" transform="translate(54.3247 54.3247)"/>
</clipPath>
</defs>
</svg>
